PathFileType	4	(X/Y/Z)	23_coords_data.trc
DataRate	CameraRate	NumFrames	NumMarkers	Units	OrigDataRate	OrigDataStartFrame	OrigNumFrames
30.0	30.0	6	21	m	30.0	1	64
Frame#	Time	THUMB_TIP	THUMB_IP	THUMB_MCP	THUMB_CMC	INDEX_TIP	INDEX_DIP	INDEX_PIP	INDEX_MCP	MIDDLE_TIP	MIDDLE_DIP	MIDDLE_PIP	MIDDLE_MCP	RING_TIP	RING_DIP	RING_PIP	RING_MCP	PINKY_TIP	PINKY_DIP	PINKY_PIP	PINKY_MCP	WRIST
X1	Y1	Z1	X2	Y2	Z2	X3	Y3	Z3	X4	Y4	Z4	X5	Y5	Z5	X6	Y6	Z6	X7	Y7	Z7	X8	Y8	Z8	X9	Y9	Z9	X10	Y10	Z10	X11	Y11	Z11	X12	Y12	Z12	X13	Y13	Z13	X14	Y14	Z14	X15	Y15	Z15	X16	Y16	Z16	X17	Y17	Z17	X18	Y18	Z18	X19	Y19	Z19	X20	Y20	Z20	X21	Y21	Z21
0	-2.749317978547796e-18	0.4925080973990891	-0.017353891820456102	-0.1715286073781167	0.4878092834680564	-0.022265446962891677	-0.1495787150384184	0.4795435567251264	-0.030506692296116134	-0.12072425893942373	0.4764575028728618	-0.028521980048724305	-0.0762672326228111	0.5794176467024097	0.027070633313404868	-0.16265972450550809	0.5666257694729182	0.018191222551321995	-0.15341180898557466	0.5484206716189731	0.008403528315550024	-0.13910148800121774	0.5170664666742073	-0.006174738450615114	-0.11424139821103108	0.5968096088983244	0.04133954440112508	-0.13942456001315212	0.5830627045725245	0.03216251014911031	-0.13202154280429368	0.5594379934910572	0.02070702482024822	-0.1193702807250615	0.5241121384594083	0.0037363611908969308	-0.09791734471941538	0.597660106544535	0.0398449294653338	-0.11674338602934442	0.5840584661465995	0.030939470603179475	-0.10895312409923374	0.5645075176496713	0.019541670167467995	-0.09855935014084127	0.53248180492549	0.0015192974126527758	-0.0816990820885618	0.5932412658909552	0.03280493284702757	-0.08616935385253832	0.5802344180603192	0.022863800615429697	-0.08116977392372793	0.5623948362573357	0.013507520725436817	-0.0752518885991571	0.5323786226094435	-0.0035639476094075917	-0.06483673914576449	0.4622830810018609	-0.023011742144276925	-0.051989820119430985
1	0.03333333333333339	0.49256294015071267	-0.017481504122024538	-0.1716697316666408	0.4882668290700465	-0.02257342488934766	-0.1496784658440038	0.47965972103948273	-0.03030948100867703	-0.1207839832033889	0.4759774551888186	-0.029359211830749854	-0.07633819705110545	0.579554834691421	0.026813632704096202	-0.16265852398006386	0.5668901756306706	0.017796856510167824	-0.15336852086146596	0.5484846700473891	0.00820148457492309	-0.13918486707803934	0.5170723679676694	-0.006027866784210412	-0.11419629104916629	0.597140082888084	0.04121014825591929	-0.13892012544905186	0.5833758680665536	0.03186572564095391	-0.13176274070742422	0.559737969332074	0.020378333129491333	-0.11916515733972716	0.5245627403852178	0.0032608159961389216	-0.09758178881844115	0.598042015551378	0.039446164386111815	-0.11638252522915693	0.5844200985056307	0.0304497678848471	-0.10873345822782854	0.564708055887964	0.019332731449332563	-0.09833986136578221	0.5325961917396023	0.0014930395433292443	-0.08144920099929442	0.5935414108838885	0.03231170151658269	-0.08581303053049494	0.5804948267697785	0.022526442595173446	-0.08061347758870929	0.5628261760379676	0.012900347708678761	-0.07461605334546317	0.5325122359322836	-0.0036652191988945093	-0.06424636293061847	0.4622830810018609	-0.023011742144276925	-0.051989820119430985
2	0.06666666666666676	0.4925782938457812	-0.017605873945942263	-0.1717266959460248	0.48859110734166533	-0.02282785155955569	-0.14970776559997223	0.4797282555369512	-0.030177383905762523	-0.12078970494266433	0.4755914208425518	-0.03000931399769957	-0.07637407310862177	0.5796541962539397	0.026615779274467677	-0.16265355604087317	0.5670874394866332	0.01749358288837044	-0.1533335690534985	0.5485359553099964	0.008039119010769369	-0.13924579489889455	0.5170776685465749	-0.005917308098724927	-0.1141613289837567	0.5973849382039682	0.04110768700980039	-0.1385317970689522	0.5836065116539166	0.031639579425024156	-0.1315668921472798	0.5599525662852289	0.02013504601627325	-0.1190151540388712	0.5248927816662674	0.002909440682592246	-0.09733018356712997	0.5983436511297593	0.03912231795391008	-0.11609602180881745	0.5847002544013995	0.030064489485075563	-0.10855855080444465	0.5648649293695618	0.01916594537410954	-0.09816809382976455	0.5326856261182313	0.0014722437207433936	-0.08125223742044896	0.5937630249027714	0.03192038399506958	-0.0855270018649329	0.5806836578254767	0.022259831356714166	-0.08017874237431888	0.5631427332288913	0.012439690934783143	-0.07412128206570257	0.5326137642910582	-0.0037446686410073093	-0.06378048849294682	0.4622830810018609	-0.023011742144276925	-0.051989820119430985
3	0.10000000000000014	0.4925804278481781	-0.017721245954473774	-0.17174116463961697	0.48881479698481056	-0.02302824928283298	-0.14970356631598747	0.4797684866266323	-0.03009433612172485	-0.12077166894148483	0.4753027233363092	-0.030483324648651222	-0.07638928903503184	0.5797277028917	0.0264701721106938	-0.16264294480419533	0.5672306518710455	0.017272224917812995	-0.1533037005508237	0.5485761348235663	0.00791666187014295	-0.13928613061925654	0.5170821568146053	-0.005839546433720422	-0.11413593824878332	0.5975683076690324	0.04101744020575482	-0.13824535781137948	0.5837766382416301	0.0314660935658313	-0.13142174939872303	0.5601041540123671	0.01995772833777265	-0.1189085335773239	0.5251227858642455	0.0026638725190460955	-0.09715136569162042	0.5985769881316254	0.03886015609863891	-0.1158833769619747	0.584910782074827	0.029768983171912344	-0.10842781616284769	0.5649832632556224	0.019035325394856417	-0.09804212584225291	0.532751795857869	0.0014568021657997976	-0.08110551270759436	0.5939259100865698	0.03161627540162815	-0.0853181072128838	0.580818564854283	0.022053429642292843	-0.07986379864581405	0.5633666757698856	0.012102758268964009	-0.0737623459002863	0.532686404327091	-0.003802469433449085	-0.06343625627590121	0.4622830810018609	-0.023011742144276925	-0.051989820119430985
4	0.13333333333333353	0.49258479877411177	-0.017824567845761363	-0.17173982594099635	0.4889622873091001	-0.023177533259221894	-0.1496893571938664	0.47979317410252686	-0.03004851641588513	-0.12074912648528546	0.47510755557182227	-0.030798644182445933	-0.07639405589218917	0.579783279577563	0.026369731315131206	-0.16262639633863474	0.5673299498550393	0.017122777242523646	-0.1532771493528508	0.5486067641313019	0.007831654749707484	-0.13930835584095697	0.5170855880861756	-0.005790639942204301	-0.11411937725787685	0.5977076345063388	0.040929731050648566	-0.13804692474197006	0.5839022125437052	0.03133144090801554	-0.13131764909213467	0.5602090809143438	0.019831163817585318	-0.1188361151144105	0.5252699087684642	0.002507539117759139	-0.0970348720759926	0.598752553518538	0.03864870982916113	-0.11574039283550619	0.5850623387738068	0.029549649130463318	-0.10833869609458535	0.5650681762124203	0.018935343795288384	-0.0979584280479242	0.5327968805154524	0.0014464140670813475	-0.08100491381043673	0.5940440183736102	0.03138642103452094	-0.08518583410215252	0.5809120932803667	0.021898106285934582	-0.07966094255776923	0.5635155739828298	0.011869709594507838	-0.0735287002982199	0.5327337516695836	-0.0038399522424925614	-0.06320545511839215	0.4622830810018609	-0.023011742144276925	-0.051989820119430985
5	0.1666666666666669	0.49259828170197506	-0.017914802179835432	-0.17173739833618767	0.4890512167857619	-0.023281072114511137	-0.1496778997591945	0.47980961496155417	-0.03003129800914872	-0.1207323086252382	0.47499658483990237	-0.0309768120962175	-0.07639461874225917	0.5798260251787214	0.026306967946758353	-0.16260472683135058	0.567393519906497	0.01703432749122047	-0.15325320547713034	0.5486293164336624	0.007779489669949569	-0.1393153979762345	0.5170876955405237	-0.0057663285424371935	-0.11411077430535815	0.5978150732704465	0.040838835610298885	-0.13792303835797293	0.5839944880487087	0.031225131862512967	-0.13124710214059554	0.5602789986884376	0.01974352206380159	-0.11879086872784184	0.5253489935070457	0.0024251443857850052	-0.09697077584010394	0.598879867042331	0.03847869808727178	-0.11565990727456427	0.5851647733470986	0.029393655718451872	-0.10828710522325802	0.5651248199088742	0.018860784644708972	-0.09791218969889326	0.5328234425891423	0.001440618790077175	-0.08094517231676512	0.5941275005889477	0.03121895290790966	-0.08512387606237182	0.5809734917968639	0.02178553169358166	-0.07955767296772609	0.5636040018731827	0.011722589718637377	-0.07340543454581461	0.532759616629374	-0.003859417928016029	-0.06307545934588554	0.4622830810018609	-0.023011742144276925	-0.051989820119430985
